<?xml version="1.0" standalone="no"?>
<!DOCTYPE svg PUBLIC "-//W3C//DTD SVG 20010904//EN"
 "http://www.w3.org/TR/2001/REC-SVG-20010904/DTD/svg10.dtd">
<svg version="1.0" xmlns="http://www.w3.org/2000/svg"
 width="364.000000pt" height="364.000000pt" viewBox="0 0 364.000000 364.000000"
 preserveAspectRatio="xMidYMid meet">
<metadata>
Created by potrace 1.14, written by Peter Selinger 2001-2017
</metadata>
<g transform="translate(0.000000,364.000000) scale(0.100000,-0.100000)"
fill="#000000" stroke="none">
<path d="M0 1820 l0 -1820 1820 0 1820 0 0 1820 0 1820 -1820 0 -1820 0 0
-1820z m1825 1402 c6 -10 12 -162 15 -371 l5 -354 60 -31 c154 -81 295 -156
345 -183 293 -158 282 -153 297 -153 6 0 13 -4 15 -8 2 -5 57 -37 123 -71 66
-35 125 -68 131 -73 6 -4 44 -24 83 -43 40 -20 69 -40 67 -47 -1 -7 -1 -10 1
-5 3 4 11 7 19 7 9 0 13 -4 9 -9 -4 -8 34 -28 43 -22 1 1 25 -10 52 -25 36
-20 50 -33 49 -48 0 -18 -1 -19 -7 -4 -4 10 -24 27 -45 38 -44 24 -48 24 -41
5 4 -8 12 -15 20 -15 8 0 11 -6 8 -15 -4 -8 -2 -15 3 -15 5 0 10 -14 11 -30 2
-21 -2 -30 -13 -30 -12 0 -15 -16 -16 -82 -1 -46 -4 -72 -6 -58 -2 14 -6 32
-9 40 -4 8 -5 54 -4 101 1 76 -1 87 -17 91 -16 4 -18 -1 -15 -44 2 -26 9 -48
15 -48 5 0 2 -9 -7 -19 -11 -12 -15 -27 -11 -40 4 -14 -1 -24 -19 -37 -25 -15
-46 -15 -93 3 -17 6 -17 6 -1 -10 9 -9 23 -17 30 -18 7 0 0 -5 -17 -11 -16 -6
-36 -18 -44 -25 -8 -9 -23 -12 -37 -9 -12 3 -26 2 -29 -4 -4 -6 1 -7 12 -4 10
3 -4 -6 -30 -20 -27 -14 -54 -26 -62 -26 -7 0 -15 -4 -17 -8 -2 -7 -266 -140
-413 -208 -16 -8 -37 -18 -45 -23 -8 -5 -51 -26 -95 -46 -44 -21 -131 -62
-192 -92 l-113 -56 0 -283 c0 -180 4 -284 10 -284 5 0 56 24 112 54 57 29 171
88 253 131 83 43 155 81 160 85 6 4 35 18 65 31 30 12 62 28 70 34 8 7 74 43
145 80 72 38 145 77 164 87 18 11 41 16 50 13 8 -3 12 -3 8 1 -4 4 5 15 21 24
38 23 62 31 62 21 0 -5 -10 -11 -22 -14 -12 -4 -20 -8 -17 -11 12 -13 46 8 56
35 7 19 18 29 31 29 11 0 23 6 26 13 5 13 -1 -39 -10 -85 -6 -31 6 -42 24 -22
7 8 8 14 2 14 -5 0 -10 6 -10 14 0 11 5 12 25 3 14 -7 25 -15 25 -19 0 -3 -33
-23 -72 -44 -40 -20 -90 -48 -110 -61 -21 -12 -40 -23 -44 -23 -10 0 -78 -33
-94 -46 -8 -6 -40 -24 -70 -40 -30 -15 -57 -31 -60 -35 -3 -3 -16 -10 -30 -14
-14 -4 -29 -11 -35 -15 -13 -10 -215 -118 -315 -168 -41 -20 -77 -39 -80 -43
-3 -3 -30 -18 -60 -33 -30 -16 -77 -41 -105 -56 -91 -50 -232 -120 -242 -120
-6 0 -22 9 -37 21 l-26 20 -1 357 0 357 -97 48 c-53 26 -142 71 -197 100 -55
29 -156 83 -225 119 -69 36 -163 86 -210 110 -185 98 -311 164 -435 229 -72
37 -137 78 -145 90 -13 19 -15 78 -15 368 0 190 3 357 7 371 5 19 30 37 100
72 51 26 149 77 218 114 129 68 485 255 625 329 44 24 143 75 220 115 77 40
156 81 175 92 39 21 79 17 95 -10z m1319 -1500 c-7 -2 -15 -20 -17 -40 -2 -20
-3 -12 -3 20 1 52 2 55 17 40 12 -13 13 -18 3 -20z m-87 -484 c-1 -46 -3 -9
-3 82 0 91 2 128 3 83 2 -46 2 -120 0 -165z m79 -154 c-3 -8 -17 -13 -33 -13
l-28 2 28 4 c24 4 27 9 29 46 1 39 2 39 5 9 3 -19 2 -40 -1 -48z m-13 -30 c9
-3 15 -9 13 -13 -8 -12 -69 0 -85 17 -13 13 -11 14 20 7 19 -3 42 -9 52 -11z"/>
<path d="M1630 3039 c-30 -17 -107 -58 -170 -91 -63 -33 -137 -73 -165 -88
-27 -15 -99 -54 -160 -85 -249 -131 -503 -265 -560 -296 l-50 -28 -3 -261 -2
-261 27 15 c16 8 82 41 148 72 66 31 181 86 255 121 74 36 167 80 205 98 39
18 155 74 258 124 104 51 213 103 243 116 l54 24 0 285 c0 223 -3 286 -12 285
-7 0 -38 -14 -68 -30z"/>
<path d="M1680 2349 c-15 -9 -453 -222 -620 -301 -47 -23 -173 -83 -280 -135
l-195 -94 35 -22 c19 -11 37 -24 40 -28 3 -3 58 -34 123 -67 64 -34 127 -68
140 -75 12 -8 92 -50 177 -94 194 -100 324 -169 534 -282 32 -18 62 -31 67
-29 11 4 12 1119 1 1129 -4 4 -14 3 -22 -2z"/>
<path d="M1840 1780 c0 -314 2 -570 4 -570 2 0 102 47 221 105 120 58 218 105
220 105 2 0 59 27 128 60 69 33 130 60 136 60 6 0 11 5 11 10 0 6 5 10 11 10
7 0 58 23 114 50 109 53 120 57 109 38 -4 -7 5 0 21 15 18 17 36 26 47 24 10
-3 16 -1 12 4 -3 5 4 9 14 9 11 0 22 7 26 15 8 21 34 19 39 -2 2 -10 4 3 3 30
0 38 -3 47 -17 47 -10 0 -24 7 -33 15 -8 8 -20 15 -26 15 -6 0 -9 4 -6 9 4 5
-3 7 -14 4 -27 -7 -26 14 1 22 17 6 19 9 8 16 -8 5 -18 9 -24 9 -5 0 -3 -4 4
-9 12 -8 9 -11 -12 -16 -20 -5 -37 -1 -65 17 -20 13 -57 33 -82 43 -25 11 -85
42 -135 69 -49 27 -139 74 -200 104 -60 31 -111 60 -113 64 -2 4 -8 8 -13 8
-5 0 -92 43 -192 95 -100 52 -185 95 -189 95 -4 0 -8 -256 -8 -570z"/>
<path d="M2889 1911 c7 -5 11 -13 7 -19 -4 -6 2 -8 14 -5 19 5 20 6 3 19 -10
7 -22 13 -28 14 -5 0 -4 -4 4 -9z"/>
<path d="M2950 1819 c0 -18 2 -19 15 -5 8 8 15 17 15 20 0 3 -7 6 -15 6 -9 0
-15 -9 -15 -21z"/>
<path d="M2857 1659 c7 -7 15 -10 18 -7 3 3 -2 9 -12 12 -14 6 -15 5 -6 -5z"/>
<path d="M2950 1630 c-8 -5 -10 -10 -5 -10 6 0 17 5 25 10 8 5 11 10 5 10 -5
0 -17 -5 -25 -10z"/>
<path d="M2950 1019 c-8 -5 -10 -9 -5 -9 6 0 1 -8 -10 -16 -20 -16 -20 -16 3
-9 13 4 22 2 22 -4 0 -15 13 -14 36 5 18 15 18 15 -10 9 -25 -5 -28 -4 -17 8
14 18 1 29 -19 16z"/>
<path d="M2888 963 c7 -3 16 -2 19 1 4 3 -2 6 -13 5 -11 0 -14 -3 -6 -6z"/>
<path d="M2895 940 c-3 -5 -2 -10 4 -10 5 0 13 5 16 10 3 6 2 10 -4 10 -5 0
-13 -4 -16 -10z"/>
<path d="M2818 905 c13 -9 26 -14 29 -11 8 8 3 12 -27 21 l-25 7 23 -17z"/>
</g>
</svg>
